<mxfile host="app.diagrams.net" modified="2021-03-31T07:36:44.562Z" agent="5.0 (Windows NT 10.0; Win64; x64) AppleWebKit/537.36 (KHTML, like Gecko) Chrome/89.0.4389.90 Safari/537.36" etag="ArKKN6fV_k4QpskrhppK" version="14.4.3" type="github">
  <diagram id="PQdoU45ZZB21gDX6Laz1" name="Page-1">
    <mxGraphModel dx="1422" dy="794" grid="1" gridSize="10" guides="1" tooltips="1" connect="1" arrows="1" fold="1" page="1" pageScale="1" pageWidth="827" pageHeight="1169" math="0" shadow="0">
      <root>
        <mxCell id="0" />
        <mxCell id="1" parent="0" />
        <mxCell id="P4EdHyiXl2i9x474UsbQ-1" value="&lt;font style=&quot;font-size: 24px&quot;&gt;&lt;font style=&quot;font-size: 24px&quot;&gt;支付&lt;/font&gt;流程&lt;/font&gt;" style="text;html=1;strokeColor=none;fillColor=none;align=center;verticalAlign=middle;whiteSpace=wrap;rounded=0;" vertex="1" parent="1">
          <mxGeometry x="250" y="110" width="660" height="40" as="geometry" />
        </mxCell>
        <mxCell id="P4EdHyiXl2i9x474UsbQ-2" value="微信内" style="text;html=1;align=center;verticalAlign=middle;resizable=0;points=[];autosize=1;" vertex="1" parent="1">
          <mxGeometry x="75" y="280" width="50" height="20" as="geometry" />
        </mxCell>
        <mxCell id="P4EdHyiXl2i9x474UsbQ-3" value="ios" style="text;html=1;align=center;verticalAlign=middle;resizable=0;points=[];autosize=1;" vertex="1" parent="1">
          <mxGeometry x="75" y="690" width="30" height="20" as="geometry" />
        </mxCell>
        <mxCell id="P4EdHyiXl2i9x474UsbQ-4" value="支付宝" style="text;html=1;align=center;verticalAlign=middle;resizable=0;points=[];autosize=1;" vertex="1" parent="1">
          <mxGeometry x="160" y="280" width="50" height="20" as="geometry" />
        </mxCell>
        <mxCell id="P4EdHyiXl2i9x474UsbQ-5" value="微信" style="text;html=1;align=center;verticalAlign=middle;resizable=0;points=[];autosize=1;" vertex="1" parent="1">
          <mxGeometry x="160" y="490" width="40" height="20" as="geometry" />
        </mxCell>
        <mxCell id="P4EdHyiXl2i9x474UsbQ-6" value="下单" style="text;html=1;align=center;verticalAlign=middle;resizable=0;points=[];autosize=1;" vertex="1" parent="1">
          <mxGeometry x="290" y="210" width="40" height="20" as="geometry" />
        </mxCell>
        <mxCell id="P4EdHyiXl2i9x474UsbQ-23" style="edgeStyle=orthogonalEdgeStyle;rounded=0;orthogonalLoop=1;jettySize=auto;html=1;" edge="1" parent="1" source="P4EdHyiXl2i9x474UsbQ-7" target="P4EdHyiXl2i9x474UsbQ-12">
          <mxGeometry relative="1" as="geometry" />
        </mxCell>
        <mxCell id="P4EdHyiXl2i9x474UsbQ-24" value="订单数据" style="edgeLabel;html=1;align=center;verticalAlign=middle;resizable=0;points=[];" vertex="1" connectable="0" parent="P4EdHyiXl2i9x474UsbQ-23">
          <mxGeometry x="-0.2061" y="-1" relative="1" as="geometry">
            <mxPoint x="1" as="offset" />
          </mxGeometry>
        </mxCell>
        <mxCell id="P4EdHyiXl2i9x474UsbQ-7" value="&lt;div style=&quot;font-family: &amp;#34;consolas&amp;#34; , &amp;#34;courier new&amp;#34; , monospace ; font-size: 14px ; line-height: 19px&quot;&gt;&lt;span style=&quot;background-color: rgb(255 , 255 , 255)&quot;&gt;/Customer/pay&lt;/span&gt;&lt;/div&gt;" style="text;html=1;align=center;verticalAlign=middle;resizable=0;points=[];autosize=1;" vertex="1" parent="1">
          <mxGeometry x="267.5" y="490" width="120" height="20" as="geometry" />
        </mxCell>
        <mxCell id="P4EdHyiXl2i9x474UsbQ-8" value="支付" style="text;html=1;align=center;verticalAlign=middle;resizable=0;points=[];autosize=1;" vertex="1" parent="1">
          <mxGeometry x="610" y="210" width="40" height="20" as="geometry" />
        </mxCell>
        <mxCell id="P4EdHyiXl2i9x474UsbQ-34" style="edgeStyle=orthogonalEdgeStyle;rounded=0;orthogonalLoop=1;jettySize=auto;html=1;" edge="1" parent="1" source="P4EdHyiXl2i9x474UsbQ-9" target="P4EdHyiXl2i9x474UsbQ-33">
          <mxGeometry relative="1" as="geometry">
            <mxPoint x="900" y="580" as="targetPoint" />
          </mxGeometry>
        </mxCell>
        <mxCell id="P4EdHyiXl2i9x474UsbQ-9" value="&lt;div style=&quot;font-family: &amp;#34;consolas&amp;#34; , &amp;#34;courier new&amp;#34; , monospace ; font-weight: normal ; font-size: 14px ; line-height: 19px&quot;&gt;&lt;div style=&quot;font-family: &amp;#34;consolas&amp;#34; , &amp;#34;courier new&amp;#34; , monospace ; line-height: 19px&quot;&gt;WeixinJSBridge.invoke(&#39;getBrandWCPayRequest&#39;)&lt;br&gt;&lt;/div&gt;&lt;/div&gt;" style="text;whiteSpace=wrap;html=1;labelBackgroundColor=#ffffff;" vertex="1" parent="1">
          <mxGeometry x="436.25" y="565" width="342.5" height="20" as="geometry" />
        </mxCell>
        <mxCell id="P4EdHyiXl2i9x474UsbQ-26" style="edgeStyle=orthogonalEdgeStyle;rounded=0;orthogonalLoop=1;jettySize=auto;html=1;entryX=-0.035;entryY=0.45;entryDx=0;entryDy=0;entryPerimeter=0;" edge="1" parent="1" source="P4EdHyiXl2i9x474UsbQ-10" target="P4EdHyiXl2i9x474UsbQ-11">
          <mxGeometry relative="1" as="geometry">
            <Array as="points">
              <mxPoint x="499" y="290" />
              <mxPoint x="499" y="279" />
            </Array>
          </mxGeometry>
        </mxCell>
        <mxCell id="P4EdHyiXl2i9x474UsbQ-10" value="&lt;div style=&quot;font-family: &amp;#34;consolas&amp;#34; , &amp;#34;courier new&amp;#34; , monospace ; font-size: 14px ; line-height: 19px&quot;&gt;/Customer/createOrder&lt;/div&gt;" style="text;html=1;align=center;verticalAlign=middle;resizable=0;points=[];autosize=1;labelBackgroundColor=#ffffff;" vertex="1" parent="1">
          <mxGeometry x="260" y="280" width="180" height="20" as="geometry" />
        </mxCell>
        <mxCell id="P4EdHyiXl2i9x474UsbQ-16" value="" style="edgeStyle=orthogonalEdgeStyle;rounded=0;orthogonalLoop=1;jettySize=auto;html=1;" edge="1" parent="1" source="P4EdHyiXl2i9x474UsbQ-11" target="P4EdHyiXl2i9x474UsbQ-15">
          <mxGeometry relative="1" as="geometry" />
        </mxCell>
        <mxCell id="P4EdHyiXl2i9x474UsbQ-11" value="跳转系统浏览器" style="text;html=1;align=center;verticalAlign=middle;resizable=0;points=[];autosize=1;labelBackgroundColor=#FFFFFF;" vertex="1" parent="1">
          <mxGeometry x="557.5" y="270" width="100" height="20" as="geometry" />
        </mxCell>
        <mxCell id="P4EdHyiXl2i9x474UsbQ-19" value="" style="edgeStyle=orthogonalEdgeStyle;rounded=0;orthogonalLoop=1;jettySize=auto;html=1;" edge="1" parent="1" source="P4EdHyiXl2i9x474UsbQ-12" target="P4EdHyiXl2i9x474UsbQ-9">
          <mxGeometry relative="1" as="geometry" />
        </mxCell>
        <mxCell id="P4EdHyiXl2i9x474UsbQ-12" value="&lt;span style=&quot;font-family: &amp;#34;consolas&amp;#34; , &amp;#34;courier new&amp;#34; , monospace ; font-size: 14px ; font-style: normal ; font-weight: 400 ; letter-spacing: normal ; text-align: left ; text-indent: 0px ; text-transform: none ; word-spacing: 0px ; background-color: rgb(255 , 255 , 255)&quot;&gt;WXSDK&lt;/span&gt;&lt;span style=&quot;font-family: &amp;#34;consolas&amp;#34; , &amp;#34;courier new&amp;#34; , monospace ; font-size: 14px ; font-style: normal ; font-weight: 400 ; letter-spacing: normal ; text-align: left ; text-indent: 0px ; text-transform: none ; word-spacing: 0px ; background-color: rgb(255 , 255 , 255)&quot;&gt;.&lt;/span&gt;&lt;span style=&quot;font-family: &amp;#34;consolas&amp;#34; , &amp;#34;courier new&amp;#34; , monospace ; font-size: 14px ; font-style: normal ; font-weight: 400 ; letter-spacing: normal ; text-align: left ; text-indent: 0px ; text-transform: none ; word-spacing: 0px ; background-color: rgb(255 , 255 , 255)&quot;&gt;_pay&lt;/span&gt;&lt;span style=&quot;font-family: &amp;#34;consolas&amp;#34; , &amp;#34;courier new&amp;#34; , monospace ; font-size: 14px ; font-style: normal ; font-weight: 400 ; letter-spacing: normal ; text-align: left ; text-indent: 0px ; text-transform: none ; word-spacing: 0px ; background-color: rgb(255 , 255 , 255)&quot;&gt;()&lt;br&gt;&lt;/span&gt;" style="text;whiteSpace=wrap;html=1;" vertex="1" parent="1">
          <mxGeometry x="547.5" y="480" width="120" height="30" as="geometry" />
        </mxCell>
        <mxCell id="P4EdHyiXl2i9x474UsbQ-30" style="edgeStyle=orthogonalEdgeStyle;rounded=0;orthogonalLoop=1;jettySize=auto;html=1;entryX=0;entryY=0.65;entryDx=0;entryDy=0;entryPerimeter=0;" edge="1" parent="1" source="P4EdHyiXl2i9x474UsbQ-14" target="P4EdHyiXl2i9x474UsbQ-29">
          <mxGeometry relative="1" as="geometry" />
        </mxCell>
        <mxCell id="P4EdHyiXl2i9x474UsbQ-14" value="&lt;span style=&quot;font-family: &amp;#34;consolas&amp;#34; , &amp;#34;courier new&amp;#34; , monospace ; font-size: 14px ; font-style: normal ; font-weight: 400 ; letter-spacing: normal ; text-align: center ; text-indent: 0px ; text-transform: none ; word-spacing: 0px ; background-color: rgb(255 , 255 , 255)&quot;&gt;document&lt;/span&gt;&lt;span style=&quot;font-family: &amp;#34;consolas&amp;#34; , &amp;#34;courier new&amp;#34; , monospace ; font-size: 14px ; font-style: normal ; font-weight: 400 ; letter-spacing: normal ; text-align: center ; text-indent: 0px ; text-transform: none ; word-spacing: 0px ; background-color: rgb(255 , 255 , 255) ; display: inline ; float: none&quot;&gt;.&lt;/span&gt;&lt;span style=&quot;font-family: &amp;#34;consolas&amp;#34; , &amp;#34;courier new&amp;#34; , monospace ; font-size: 14px ; font-style: normal ; font-weight: 400 ; letter-spacing: normal ; text-align: center ; text-indent: 0px ; text-transform: none ; word-spacing: 0px ; background-color: rgb(255 , 255 , 255)&quot;&gt;forms&lt;/span&gt;&lt;span style=&quot;font-family: &amp;#34;consolas&amp;#34; , &amp;#34;courier new&amp;#34; , monospace ; font-size: 14px ; font-style: normal ; font-weight: 400 ; letter-spacing: normal ; text-align: center ; text-indent: 0px ; text-transform: none ; word-spacing: 0px ; background-color: rgb(255 , 255 , 255) ; display: inline ; float: none&quot;&gt;.&lt;/span&gt;&lt;span style=&quot;font-family: &amp;#34;consolas&amp;#34; , &amp;#34;courier new&amp;#34; , monospace ; font-size: 14px ; font-style: normal ; font-weight: 400 ; letter-spacing: normal ; text-align: center ; text-indent: 0px ; text-transform: none ; word-spacing: 0px ; background-color: rgb(255 , 255 , 255)&quot;&gt;punchout_form&lt;/span&gt;&lt;span style=&quot;font-family: &amp;#34;consolas&amp;#34; , &amp;#34;courier new&amp;#34; , monospace ; font-size: 14px ; font-style: normal ; font-weight: 400 ; letter-spacing: normal ; text-align: center ; text-indent: 0px ; text-transform: none ; word-spacing: 0px ; background-color: rgb(255 , 255 , 255) ; display: inline ; float: none&quot;&gt;.&lt;/span&gt;&lt;span style=&quot;font-family: &amp;#34;consolas&amp;#34; , &amp;#34;courier new&amp;#34; , monospace ; font-size: 14px ; font-style: normal ; font-weight: 400 ; letter-spacing: normal ; text-align: center ; text-indent: 0px ; text-transform: none ; word-spacing: 0px ; background-color: rgb(255 , 255 , 255)&quot;&gt;submit&lt;/span&gt;&lt;span style=&quot;font-family: &amp;#34;consolas&amp;#34; , &amp;#34;courier new&amp;#34; , monospace ; font-size: 14px ; font-style: normal ; font-weight: 400 ; letter-spacing: normal ; text-align: center ; text-indent: 0px ; text-transform: none ; word-spacing: 0px ; background-color: rgb(255 , 255 , 255) ; display: inline ; float: none&quot;&gt;()&lt;/span&gt;" style="text;whiteSpace=wrap;html=1;" vertex="1" parent="1">
          <mxGeometry x="452.5" y="420" width="310" height="30" as="geometry" />
        </mxCell>
        <mxCell id="P4EdHyiXl2i9x474UsbQ-17" value="" style="edgeStyle=orthogonalEdgeStyle;rounded=0;orthogonalLoop=1;jettySize=auto;html=1;" edge="1" parent="1" source="P4EdHyiXl2i9x474UsbQ-15" target="P4EdHyiXl2i9x474UsbQ-14">
          <mxGeometry relative="1" as="geometry" />
        </mxCell>
        <mxCell id="P4EdHyiXl2i9x474UsbQ-15" value="&lt;div style=&quot;font-family: &amp;#34;consolas&amp;#34; , &amp;#34;courier new&amp;#34; , monospace ; font-size: 14px ; line-height: 19px&quot;&gt;/Customer/payExt&lt;/div&gt;" style="text;html=1;align=center;verticalAlign=middle;resizable=0;points=[];autosize=1;" vertex="1" parent="1">
          <mxGeometry x="537.5" y="350" width="140" height="20" as="geometry" />
        </mxCell>
        <mxCell id="P4EdHyiXl2i9x474UsbQ-18" value="android" style="text;html=1;align=center;verticalAlign=middle;resizable=0;points=[];autosize=1;" vertex="1" parent="1">
          <mxGeometry x="60" y="870" width="60" height="20" as="geometry" />
        </mxCell>
        <mxCell id="P4EdHyiXl2i9x474UsbQ-21" value="订单数据" style="text;html=1;align=center;verticalAlign=middle;resizable=0;points=[];autosize=1;" vertex="1" parent="1">
          <mxGeometry x="590" y="520" width="60" height="20" as="geometry" />
        </mxCell>
        <mxCell id="P4EdHyiXl2i9x474UsbQ-22" value="支付后" style="text;html=1;align=center;verticalAlign=middle;resizable=0;points=[];autosize=1;" vertex="1" parent="1">
          <mxGeometry x="945" y="210" width="50" height="20" as="geometry" />
        </mxCell>
        <mxCell id="P4EdHyiXl2i9x474UsbQ-25" value="订单数据" style="text;html=1;align=center;verticalAlign=middle;resizable=0;points=[];autosize=1;" vertex="1" parent="1">
          <mxGeometry x="600" y="300" width="60" height="20" as="geometry" />
        </mxCell>
        <mxCell id="P4EdHyiXl2i9x474UsbQ-27" value="订单数据" style="text;html=1;align=center;verticalAlign=middle;resizable=0;points=[];autosize=1;" vertex="1" parent="1">
          <mxGeometry x="460" y="290" width="60" height="20" as="geometry" />
        </mxCell>
        <mxCell id="P4EdHyiXl2i9x474UsbQ-28" value="阿里支付html" style="text;html=1;align=center;verticalAlign=middle;resizable=0;points=[];autosize=1;" vertex="1" parent="1">
          <mxGeometry x="575" y="380" width="90" height="20" as="geometry" />
        </mxCell>
        <mxCell id="P4EdHyiXl2i9x474UsbQ-32" value="" style="edgeStyle=orthogonalEdgeStyle;rounded=0;orthogonalLoop=1;jettySize=auto;html=1;" edge="1" parent="1" source="P4EdHyiXl2i9x474UsbQ-29" target="P4EdHyiXl2i9x474UsbQ-31">
          <mxGeometry relative="1" as="geometry" />
        </mxCell>
        <mxCell id="P4EdHyiXl2i9x474UsbQ-29" value="跳转设定的支付回调页面，提示返回微信" style="text;html=1;align=center;verticalAlign=middle;resizable=0;points=[];autosize=1;" vertex="1" parent="1">
          <mxGeometry x="870" y="280" width="230" height="20" as="geometry" />
        </mxCell>
        <mxCell id="P4EdHyiXl2i9x474UsbQ-31" value="返回微信进入订单确认页" style="text;html=1;align=center;verticalAlign=middle;resizable=0;points=[];autosize=1;" vertex="1" parent="1">
          <mxGeometry x="910" y="370" width="150" height="20" as="geometry" />
        </mxCell>
        <mxCell id="P4EdHyiXl2i9x474UsbQ-33" value="监听&lt;span style=&quot;font-family: &amp;#34;consolas&amp;#34; , &amp;#34;courier new&amp;#34; , monospace ; font-size: 14px&quot;&gt;wx_pay_finish&lt;/span&gt;" style="text;html=1;align=center;verticalAlign=middle;resizable=0;points=[];autosize=1;labelBackgroundColor=#ffffff;" vertex="1" parent="1">
          <mxGeometry x="920" y="545" width="140" height="20" as="geometry" />
        </mxCell>
        <mxCell id="P4EdHyiXl2i9x474UsbQ-35" value="内购" style="text;html=1;align=center;verticalAlign=middle;resizable=0;points=[];autosize=1;" vertex="1" parent="1">
          <mxGeometry x="160" y="690" width="40" height="20" as="geometry" />
        </mxCell>
        <mxCell id="P4EdHyiXl2i9x474UsbQ-36" value="微信" style="text;html=1;align=center;verticalAlign=middle;resizable=0;points=[];autosize=1;" vertex="1" parent="1">
          <mxGeometry x="160" y="870" width="40" height="20" as="geometry" />
        </mxCell>
        <mxCell id="P4EdHyiXl2i9x474UsbQ-40" style="edgeStyle=orthogonalEdgeStyle;rounded=0;orthogonalLoop=1;jettySize=auto;html=1;" edge="1" parent="1" source="P4EdHyiXl2i9x474UsbQ-38">
          <mxGeometry relative="1" as="geometry">
            <mxPoint x="550" y="880" as="targetPoint" />
          </mxGeometry>
        </mxCell>
        <mxCell id="P4EdHyiXl2i9x474UsbQ-38" value="&lt;span style=&quot;font-family: &amp;#34;consolas&amp;#34; , &amp;#34;courier new&amp;#34; , monospace ; font-size: 14px ; font-style: normal ; font-weight: 400 ; letter-spacing: normal ; text-align: center ; text-indent: 0px ; text-transform: none ; word-spacing: 0px ; background-color: rgb(255 , 255 , 255) ; display: inline ; float: none&quot;&gt;/Customer/pay&lt;/span&gt;" style="text;whiteSpace=wrap;html=1;" vertex="1" parent="1">
          <mxGeometry x="260" y="870" width="130" height="30" as="geometry" />
        </mxCell>
        <mxCell id="P4EdHyiXl2i9x474UsbQ-43" style="edgeStyle=orthogonalEdgeStyle;rounded=0;orthogonalLoop=1;jettySize=auto;html=1;" edge="1" parent="1" source="P4EdHyiXl2i9x474UsbQ-39" target="P4EdHyiXl2i9x474UsbQ-42">
          <mxGeometry relative="1" as="geometry" />
        </mxCell>
        <mxCell id="P4EdHyiXl2i9x474UsbQ-39" value="&lt;div style=&quot;font-family: &amp;#34;consolas&amp;#34; , &amp;#34;courier new&amp;#34; , monospace ; font-weight: normal ; font-size: 14px ; line-height: 19px&quot;&gt;&lt;div&gt;hybrid.goToPay&lt;/div&gt;&lt;/div&gt;" style="text;whiteSpace=wrap;html=1;labelBackgroundColor=#ffffff;" vertex="1" parent="1">
          <mxGeometry x="555" y="865" width="135" height="30" as="geometry" />
        </mxCell>
        <mxCell id="P4EdHyiXl2i9x474UsbQ-41" value="订单数据" style="text;html=1;align=center;verticalAlign=middle;resizable=0;points=[];autosize=1;" vertex="1" parent="1">
          <mxGeometry x="410" y="860" width="60" height="20" as="geometry" />
        </mxCell>
        <mxCell id="P4EdHyiXl2i9x474UsbQ-42" value="&lt;div style=&quot;font-family: &amp;#34;consolas&amp;#34; , &amp;#34;courier new&amp;#34; , monospace ; font-size: 14px ; line-height: 19px&quot;&gt;window.getPayResult&lt;/div&gt;" style="text;html=1;align=center;verticalAlign=middle;resizable=0;points=[];autosize=1;labelBackgroundColor=#ffffff;" vertex="1" parent="1">
          <mxGeometry x="895" y="870" width="160" height="20" as="geometry" />
        </mxCell>
        <mxCell id="P4EdHyiXl2i9x474UsbQ-44" value="app回调" style="text;html=1;align=center;verticalAlign=middle;resizable=0;points=[];autosize=1;" vertex="1" parent="1">
          <mxGeometry x="760" y="860" width="60" height="20" as="geometry" />
        </mxCell>
        <mxCell id="P4EdHyiXl2i9x474UsbQ-46" value="&lt;span style=&quot;font-family: &amp;#34;consolas&amp;#34; , &amp;#34;courier new&amp;#34; , monospace ; font-size: 14px ; font-style: normal ; font-weight: 400 ; letter-spacing: normal ; text-indent: 0px ; text-transform: none ; word-spacing: 0px ; background-color: rgb(255 , 255 , 255) ; display: inline ; float: none&quot;&gt;/Customer/pay&lt;br&gt;&lt;br&gt;（如果是ios，该接口会下单并使用点数支付，因此需要在调用前查询点数余额）&lt;/span&gt;" style="text;whiteSpace=wrap;html=1;align=center;" vertex="1" parent="1">
          <mxGeometry x="330" y="690" width="390" height="30" as="geometry" />
        </mxCell>
        <mxCell id="P4EdHyiXl2i9x474UsbQ-47" value="平台" style="text;html=1;align=center;verticalAlign=middle;resizable=0;points=[];autosize=1;" vertex="1" parent="1">
          <mxGeometry x="80" y="210" width="40" height="20" as="geometry" />
        </mxCell>
        <mxCell id="P4EdHyiXl2i9x474UsbQ-48" value="渠道" style="text;html=1;align=center;verticalAlign=middle;resizable=0;points=[];autosize=1;" vertex="1" parent="1">
          <mxGeometry x="170" y="210" width="40" height="20" as="geometry" />
        </mxCell>
        <mxCell id="P4EdHyiXl2i9x474UsbQ-50" value="" style="endArrow=none;html=1;" edge="1" parent="1">
          <mxGeometry width="50" height="50" relative="1" as="geometry">
            <mxPoint x="40" y="200" as="sourcePoint" />
            <mxPoint x="1120" y="200" as="targetPoint" />
          </mxGeometry>
        </mxCell>
        <mxCell id="P4EdHyiXl2i9x474UsbQ-51" value="" style="endArrow=none;html=1;" edge="1" parent="1">
          <mxGeometry width="50" height="50" relative="1" as="geometry">
            <mxPoint x="40" y="250" as="sourcePoint" />
            <mxPoint x="1120" y="250" as="targetPoint" />
          </mxGeometry>
        </mxCell>
        <mxCell id="P4EdHyiXl2i9x474UsbQ-53" value="" style="endArrow=none;html=1;" edge="1" parent="1">
          <mxGeometry width="50" height="50" relative="1" as="geometry">
            <mxPoint x="130" y="200" as="sourcePoint" />
            <mxPoint x="130" y="960" as="targetPoint" />
          </mxGeometry>
        </mxCell>
        <mxCell id="P4EdHyiXl2i9x474UsbQ-54" value="" style="endArrow=none;html=1;" edge="1" parent="1">
          <mxGeometry width="50" height="50" relative="1" as="geometry">
            <mxPoint x="240" y="200" as="sourcePoint" />
            <mxPoint x="240" y="960" as="targetPoint" />
          </mxGeometry>
        </mxCell>
        <mxCell id="P4EdHyiXl2i9x474UsbQ-55" value="" style="endArrow=none;html=1;" edge="1" parent="1">
          <mxGeometry width="50" height="50" relative="1" as="geometry">
            <mxPoint x="40" y="660" as="sourcePoint" />
            <mxPoint x="1120" y="660" as="targetPoint" />
          </mxGeometry>
        </mxCell>
        <mxCell id="P4EdHyiXl2i9x474UsbQ-56" value="" style="endArrow=none;html=1;" edge="1" parent="1">
          <mxGeometry width="50" height="50" relative="1" as="geometry">
            <mxPoint x="40" y="820" as="sourcePoint" />
            <mxPoint x="1120" y="820" as="targetPoint" />
          </mxGeometry>
        </mxCell>
      </root>
    </mxGraphModel>
  </diagram>
</mxfile>
